HIERARCHY
ROOT hip
{
	OFFSET 0.000000 0.000000 0.000000
	CHANNELS 6 Xposition Yposition Zposition Xrotation Zrotation Yrotation 
	JOINT abdomen
	{
		OFFSET 0.000000 3.422050 0.000000
		CHANNELS 3 Xrotation Zrotation Yrotation 
		JOINT chest
		{
			OFFSET 0.000000 8.486693 -0.684411
			CHANNELS 3 Xrotation Zrotation Yrotation 
			JOINT neck
			{
				OFFSET 0.000000 10.266162 -0.273764
				CHANNELS 3 Xrotation Zrotation Yrotation 
				JOINT head
				{
					OFFSET 0.000000 3.148285 0.000000
					CHANNELS 3 Xrotation Zrotation Yrotation 
					End Site
					{
						OFFSET 0.000000 3.148289 0.000000
					}
				}
			}
			JOINT lCollar
			{
				OFFSET 3.422053 6.707223 -0.821293
				CHANNELS 3 Yrotation Zrotation Xrotation 
				JOINT lShldr
				{
					OFFSET 3.285171 0.000000 0.000000
					CHANNELS 3 Zrotation Yrotation Xrotation 
					JOINT lForeArm
					{
						OFFSET 10.129278 0.000000 0.000000
						CHANNELS 3 Yrotation Zrotation Xrotation 
						JOINT lHand
						{
							OFFSET 8.486692 0.000000 0.000000
							CHANNELS 3 Zrotation Yrotation Xrotation 
							End Site
							{
								OFFSET 4.106464 0.000000 0.000000
							}
						}
					}
				}
			}
			JOINT rCollar
			{
				OFFSET -3.558935 6.707223 -0.821293
				CHANNELS 3 Yrotation Zrotation Xrotation 
				JOINT rShldr
				{
					OFFSET -3.148289 0.000000 0.000000
					CHANNELS 3 Zrotation Yrotation Xrotation 
					JOINT rForeArm
					{
						OFFSET -10.266159 0.000000 0.000000
						CHANNELS 3 Yrotation Zrotation Xrotation 
						JOINT rHand
						{
							OFFSET -8.349810 0.000000 0.000000
							CHANNELS 3 Zrotation Yrotation Xrotation 
							End Site
							{
								OFFSET -4.106464 0.000000 0.000000
							}
						}
					}
				}
			}
		}
	}
	JOINT lThigh
	{
		OFFSET 5.338403 -1.642589 1.368821
		CHANNELS 3 Xrotation Zrotation Yrotation 
		JOINT lShin
		{
			OFFSET -2.053232 -20.121670 0.000000
			CHANNELS 3 Xrotation Zrotation Yrotation 
			JOINT lFoot
			{
				OFFSET 0.000000 -19.300380 -1.231939
				CHANNELS 3 Xrotation Yrotation Zrotation 
				End Site
				{
					OFFSET 0.000000 -2.463878 4.653993
				}
			}
		}
	}
	JOINT rThigh
	{
		OFFSET -5.338403 -1.642589 1.368821
		CHANNELS 3 Xrotation Zrotation Yrotation 
		JOINT rShin
		{
			OFFSET 2.053232 -20.121670 0.000000
			CHANNELS 3 Xrotation Zrotation Yrotation 
			JOINT rFoot
			{
				OFFSET 0.000000 -19.300380 -1.231939
				CHANNELS 3 Xrotation Yrotation Zrotation 
				End Site
				{
					OFFSET 0.000000 -2.463878 4.653993
				}
			}
		}
	}
}
MOTION
Frames: 13
Frame Time: 0.050000
0.000000 43.528500 0.000000 0.000000 0.000000 0.000000 0.000000 0.000000 0.000000 0.000000 0.000000 0.000000 0.000000 0.000000 0.000000 0.000000 0.000000 0.000000 0.000000 0.000000 0.000000 0.000000 0.000000 0.000000 0.000000 0.000000 0.000000 0.000000 0.000000 0.000000 0.000000 0.000000 0.000000 0.000000 0.000000 0.000000 0.000000 0.000000 0.000000 0.000000 0.000000 0.000000 0.000000 0.000000 0.000000 0.000000 0.000000 0.000000 0.000000 0.000000 0.000000 0.000000 0.000000 0.000000 0.000000 0.000000 0.000000 0.000000 0.000000 0.000000 
15.171879 8.045330 -10.023472 89.999916 13.010925 -90.015808 -27.222448 -0.864050 -0.782114 24.270771 12.505402 -0.594689 59.958618 0.000000 0.000000 6.366263 -0.040154 -0.002233 -46.509598 -12.216476 -15.775887 -40.502460 -15.751664 -17.146944 -13.501600 4.475926 -10.809827 -10.246455 -32.768593 1.053469 25.104095 0.223070 1.001887 56.485516 11.501353 -7.968309 67.000198 -31.843962 -53.070232 45.376507 5.117023 17.732550 -39.153625 4.975336 0.036951 32.223217 -1.973901 -0.091478 8.884896 0.934340 2.654958 -17.153366 -5.469553 -0.174703 61.435497 24.340857 0.158935 34.979870 -0.075794 -2.178060 
15.171879 8.045330 -10.023472 89.999916 13.010922 -90.015808 -26.530779 -0.864075 -0.782262 24.885656 12.505232 -0.594830 59.193130 0.000000 0.000000 3.484922 -0.040055 -0.002164 -44.951141 -11.271161 -15.100314 -42.045849 -16.242739 -16.559708 -16.202578 5.015550 -10.576452 -9.650780 -31.758471 0.687466 24.780739 -0.202516 1.001038 56.753246 11.639395 -7.794305 68.449257 -31.950987 -52.347759 45.051964 5.546803 17.491676 -39.153625 4.975336 0.036951 32.223221 -1.973902 -0.091478 8.884896 0.934340 2.654958 -17.449505 -4.975185 0.621042 61.435497 24.340858 0.158934 34.944714 -0.488241 -1.268259 
15.171879 8.045330 -10.023472 89.999916 13.010928 -90.015800 -25.838839 -0.864099 -0.782411 25.500727 12.505058 -0.594973 58.427269 0.000000 0.000000 0.582920 -0.039952 -0.002100 -43.404709 -10.305548 -14.451467 -43.601536 -16.719362 -15.956137 -18.925644 5.546992 -10.315828 -9.068356 -30.744129 0.337235 24.457285 -0.628191 0.997785 57.021553 11.776649 -7.619544 69.903229 -32.042561 -51.620602 44.725258 5.975333 17.248104 -39.153625 4.975336 0.036951 32.223217 -1.973901 -0.091478 8.884896 0.934340 2.654958 -17.738737 -4.476388 1.414256 61.435497 24.340857 0.158936 34.916088 -0.901542 -0.357869 
15.171879 8.045330 -10.023472 89.999916 13.010925 -90.015808 -25.146669 -0.864122 -0.782560 26.115965 12.504889 -0.595118 57.661098 0.000000 0.000000 -2.336208 -0.039846 -0.002040 -41.870449 -9.320855 -13.829755 -45.168945 -17.180826 -15.336671 -21.668226 6.068223 -10.028272 -8.498576 -29.725943 0.002207 24.133715 -1.053925 0.992128 57.290428 11.913104 -7.444025 71.361336 -32.118519 -50.889515 44.396397 6.402567 17.001827 -39.153625 4.975336 0.036951 32.223217 -1.973901 -0.091478 8.884896 0.934340 2.654958 -18.021009 -3.973336 2.204925 61.435497 24.340857 0.158935 34.894012 -1.315529 0.553068 
15.171879 8.045330 -10.023472 89.999916 13.010925 -90.015808 -24.454325 -0.864142 -0.782709 26.731316 12.504717 -0.595265 56.894691 0.000000 0.000000 -5.268795 -0.039736 -0.001986 -40.348450 -8.318362 -13.235523 -46.747498 -17.626446 -14.701805 -24.427612 6.577240 -9.714301 -7.940856 -28.704252 -0.318158 23.809998 -1.479685 0.984064 57.559883 12.048762 -7.267757 72.822746 -32.178707 -50.155216 44.065338 6.828460 16.752827 -39.153625 4.975336 0.036951 32.223217 -1.973901 -0.091478 8.884896 0.934340 2.654958 -18.296272 -3.466204 2.993037 61.435497 24.340858 0.158934 34.878521 -1.730038 1.464509 
15.171879 8.045330 -10.023472 89.999916 13.010925 -90.015808 -23.761843 -0.864160 -0.782858 27.346758 12.504551 -0.595414 56.128109 0.000000 0.000000 -8.211075 -0.039623 -0.001938 -38.838730 -7.299366 -12.669063 -48.336536 -18.055552 -14.052076 -27.200909 7.072071 -9.374622 -7.394647 -27.679428 -0.624374 23.486109 -1.905440 0.973590 57.829929 12.183613 -7.090743 74.286636 -32.223038 -49.418488 43.732075 7.252966 16.501091 -39.153618 4.975335 0.036951 32.223217 -1.973901 -0.091478 8.884895 0.934340 2.654958 -18.564482 -2.955167 3.778585 61.435490 24.340853 0.158934 34.869621 -2.144898 2.376409 
15.171879 8.045330 -10.023472 89.999916 13.010925 -90.015808 -23.069296 -0.864177 -0.783008 27.962257 12.504386 -0.595564 55.361423 0.000000 0.000000 -11.159202 -0.039507 -0.001895 -37.341274 -6.265191 -12.130602 -49.935387 -18.467533 -13.388105 -29.985142 7.550830 -9.010150 -6.859410 -26.651785 -0.916928 23.162035 -2.331156 0.960703 58.100521 12.317644 -6.912982 75.752197 -32.251431 -48.680107 43.396591 7.676038 16.246603 -39.153625 4.975336 0.036951 32.223217 -1.973901 -0.091478 8.884895 0.934340 2.654958 -18.825598 -2.440404 4.561563 61.435497 24.340857 0.158935 34.867329 -2.559943 3.288725 
15.171879 8.045330 -10.023472 89.999916 13.010925 -90.015808 -22.376722 -0.864192 -0.783158 28.577772 12.504220 -0.595717 54.594696 0.000000 0.000000 -14.109279 -0.039389 -0.001858 -35.855991 -5.217175 -11.620314 -51.543270 -18.861780 -12.710529 -32.777187 8.011712 -8.621972 -6.334647 -25.621683 -1.196284 22.837749 -2.756801 0.945401 58.371700 12.450860 -6.734486 77.218544 -32.263832 -47.940857 43.058842 8.097631 15.989347 -39.153625 4.975336 0.036951 32.223217 -1.973901 -0.091478 8.884896 0.934340 2.654958 -19.079573 -1.922093 5.341973 61.435497 24.340857 0.158935 34.871658 -2.975004 4.201415 
15.171879 8.045330 -10.023472 89.999916 13.010922 -90.015808 -21.684170 -0.864205 -0.783309 29.193264 12.504057 -0.595871 53.828026 0.000000 0.000000 -17.057404 -0.039270 -0.001827 -34.382744 -4.156681 -11.138324 -53.159412 -19.237741 -12.020065 -35.573833 8.453036 -8.211375 -5.819868 -24.589449 -1.462881 22.513237 -3.182345 0.927682 58.643436 12.583245 -6.555255 78.684891 -32.260242 -47.201538 42.718857 8.517703 15.729321 -39.153625 4.975336 0.036951 32.223221 -1.973901 -0.091478 8.884896 0.934340 2.654958 -19.326385 -1.400416 6.119818 61.435497 24.340857 0.158935 34.882603 -3.389911 5.114433 
15.171879 8.045330 -10.023472 89.999916 13.010925 -90.015808 -20.991699 -0.864217 -0.783459 29.808708 12.503896 -0.596026 53.061436 0.000000 0.000000 -19.999681 -0.039149 -0.001803 -32.921345 -3.085067 -10.684703 -54.782959 -19.594898 -11.317469 -38.371780 8.873245 -7.779797 -5.314611 -23.555408 -1.717139 22.188465 -3.607752 0.907541 58.915718 12.714793 -6.375293 80.150337 -32.240662 -46.462914 42.376572 8.936200 15.466501 -39.153625 4.975336 0.036951 32.223217 -1.973901 -0.091478 8.884896 0.934340 2.654958 -19.565992 -0.875555 6.895101 61.435505 24.340858 0.158935 34.900166 -3.804496 6.027736 
15.171879 8.045330 -10.023472 89.999916 13.010925 -90.015808 -20.299355 -0.864226 -0.783609 30.424065 12.503739 -0.596184 52.295029 0.000000 0.000000 -22.932274 -0.039028 -0.001785 -31.471586 -2.003705 -10.259490 -56.413040 -19.932781 -10.603544 -41.167690 9.270947 -7.328832 -4.818435 -22.519888 -1.959456 21.863422 -4.032993 0.884976 59.188557 12.845501 -6.194607 81.614075 -32.205143 -45.725773 42.031986 9.353079 15.200878 -39.153625 4.975336 0.036951 32.223217 -1.973901 -0.091478 8.884896 0.934340 2.654958 -19.798372 -0.347692 7.667835 61.435497 24.340857 0.158935 34.924366 -4.218591 6.941281 
15.171879 8.045330 -10.023472 89.999916 13.010925 -90.015808 -19.607182 -0.864234 -0.783760 31.039286 12.503577 -0.596344 51.528862 0.000000 0.000000 -25.851404 -0.038907 -0.001773 -30.033182 -0.913958 -9.862670 -58.048706 -20.250954 -9.879137 -43.958183 9.644917 -6.860216 -4.330914 -21.483206 -2.190209 21.538076 -4.458034 0.859983 59.461948 12.975358 -6.013197 83.075233 -32.153755 -44.990898 41.685081 9.768294 14.932435 -39.153625 4.975336 0.036951 32.223217 -1.973901 -0.091478 8.884896 0.934340 2.654958 -20.023506 0.182990 8.438034 61.435497 24.340857 0.158936 34.955177 -4.632027 7.855022 
